{"title":"The Darkening 2014 WEBrip XVID AC3 ACAB","uid":11503178,"size":1238186680,"categoryP":"video","categoryS":"movies","magnet":"?xt=urn:btih:1ca10015674dc04557e52fd36f1a1fcc4996ab26&amp;dn=The+Darkening+2014+WEBrip+XVID+AC3+ACAB&amp;tr=udp%3A%2F%2Ftracker.openbittorrent.com%3A80&amp;tr=udp%3A%2F%2Fopen.demonii.com%3A1337&amp;tr=udp%3A%2F%2Ftracker.coppersurfer.tk%3A6969&amp;tr=udp%3A%2F%2Fexodus.desync.com%3A6969","seeders":9,"leechers":2,"uploader":"xxxlavalxxx","files":-1,"time":1416347363,"description":"[IMG]http://i.imgur.com/tXRLrcE.jpg[/IMG]\n\n &lt;a href=&quot;\nhttp://www.imdb.com/title/tt2099633/&quot; rel=&quot;nofollow&quot; target=&quot;_NEW&quot;&gt;\nhttp://www.imdb.com/title/tt2099633/&lt;/a&gt;\n\n\nA man deals with the personal tragedy of his family's death by living at the vacation cabin that they last stayed at. He soon discovers he's not alone.\n\nDirector: Mike Yurinko\nWriter: Mike Yurinko\nStars: Holt Boggs, Brandon Slagle, Natalie Wilemon \nGenres: Drama,Horror,Thriller\nCountry: USA\nLanguage: English\n\n\nGeneral\nComplete name                            : The.Darkening.2014.WEBrip.XVID.AC3.ACAB.avi\nFormat                                   : AVI\nFormat/Info                              : Audio Video Interleave\nFile size                                : 1.14 GiB\nDuration                                 : 1h 32mn\nOverall bit rate                         : 1 772 Kbps\n\nVideo\nID                                       : 0\nFormat                                   : MPEG-4 Visual\nFormat profile                           : Advanced Simple@L5\nFormat settings, BVOP                    : 1\nFormat settings, QPel                    : No\nFormat settings, GMC                     : No warppoints\nFormat settings, Matrix                  : Default (H.263)\nMuxing mode                              : Packed bitstream\nCodec ID                                 : XVID\nCodec ID/Hint                            : XviD\nDuration                                 : 1h 32mn\nBit rate                                 : 1 637 Kbps\nWidth                                    : 720 pixels\nHeight                                   : 304 pixels\nDisplay aspect ratio                     : 2.35:1\nFrame rate                               : 25.000 fps\nColor space                              : YUV\nChroma subsampling                       : 4:2:0\nBit depth                                : 8 bits\nScan type                                : Progressive\nCompression mode                         : Lossy\nBits/(Pixel*Frame)                       : 0.299\nStream size                              : 1.05 GiB (92%)\nWriting library                          : XviD 1.2.1 (UTC 2008-12-04)\n\nAudio\nID                                       : 1\nFormat                                   : AC-3\nFormat/Info                              : Audio Coding 3\nMode extension                           : CM (complete main)\nFormat settings, Endianness              : Big\nCodec ID                                 : 2000\nDuration                                 : 1h 32mn\nBit rate mode                            : Constant\nBit rate                                 : 128 Kbps\nChannel(s)                               : 2 channels\nChannel positions                        : Front: L R\nSampling rate                            : 48.0 KHz\nBit depth                                : 16 bits\nCompression mode                         : Lossy\nStream size                              : 84.4 MiB (7%)\nAlignment                                : Aligned on interleaves\nInterleave, duration                     : 64 ms (1.60 video frames)\nInterleave, preload duration             : 192 ms\n\n\nscreens\n &lt;a href=&quot;\nhttp://i.imgur.com/1SLgl0I.jpg&quot; rel=&quot;nofollow&quot; target=&quot;_NEW&quot;&gt;\nhttp://i.imgur.com/1SLgl0I.jpg&lt;/a&gt; &lt;a href=&quot;\nhttp://i.imgur.com/Ozt9xZi.jpg&quot; rel=&quot;nofollow&quot; target=&quot;_NEW&quot;&gt;\nhttp://i.imgur.com/Ozt9xZi.jpg&lt;/a&gt; &lt;a href=&quot;\nhttp://i.imgur.com/a99YQnp.jpg&quot; rel=&quot;nofollow&quot; target=&quot;_NEW&quot;&gt;\nhttp://i.imgur.com/a99YQnp.jpg&lt;/a&gt; &lt;a href=&quot;\nhttp://i.imgur.com/xBbQZEV.jpg&quot; rel=&quot;nofollow&quot; target=&quot;_NEW&quot;&gt;\nhttp://i.imgur.com/xBbQZEV.jpg&lt;/a&gt;","torrent":{"xt":"urn:btih:1ca10015674dc04557e52fd36f1a1fcc4996ab26","amp;dn":"The+Darkening+2014+WEBrip+XVID+AC3+ACAB","amp;tr":["udp%3A%2F%2Ftracker.openbittorrent.com%3A80","udp%3A%2F%2Fopen.demonii.com%3A1337","udp%3A%2F%2Ftracker.coppersurfer.tk%3A6969","udp%3A%2F%2Fexodus.desync.com%3A6969"],"infoHash":"1ca10015674dc04557e52fd36f1a1fcc4996ab26","infoHashBuffer":{"type":"Buffer","data":[28,161,0,21,103,77,192,69,87,229,47,211,111,26,31,204,73,150,171,38]},"announce":[],"urlList":[]}}